name rise34.3697peak60.0498fall86.3158.mot
datacolumns 19
datarows 12
range 2.19832200000000 2.21666400000000
endheader
time	ground_force1_vx	ground_force1_vy	ground_force1_vz	ground_force1_px	ground_force1_py	ground_force1_pz	ground_force2_vx	ground_force2_vy	ground_force2_vz	ground_force2_px	ground_force2_py	ground_force2_pz	ground_torque1_x	ground_torque1_y	ground_torque1_z	ground_torque2_x	ground_torque2_y	ground_torque2_z	
2.19832200000000	66.02842200000001	801.01387599999998	59.86915700000000	0.43262100000000	0.00000000000000	0.11465200000000	0.00000000000000	0.00000000000000	0.00000000000000	0.00000000000000	0.00000000000000	0.00000000000000	0.00000000000000	34.79495200000000	0.00000000000000	0.00000000000000	0.00000000000000	0.00000000000000	
2.19998900000000	65.18169200000000	802.68240800000001	59.86125000000000	0.43141900000000	0.00000000000000	0.11465200000000	0.00000000000000	0.00000000000000	0.00000000000000	0.00000000000000	0.00000000000000	0.00000000000000	0.00000000000000	34.80320700000000	0.00000000000000	0.00000000000000	0.00000000000000	0.00000000000000	
2.20165500000000	64.33449500000000	804.17377399999998	59.84755600000000	0.43021700000000	0.00000000000000	0.11465300000000	0.00000000000000	0.00000000000000	0.00000000000000	0.00000000000000	0.00000000000000	0.00000000000000	0.00000000000000	34.80705500000000	0.00000000000000	0.00000000000000	0.00000000000000	0.00000000000000	
2.20332300000000	63.48733500000000	805.48809100000005	59.82826400000000	0.42901400000000	0.00000000000000	0.11465500000000	0.00000000000000	0.00000000000000	0.00000000000000	0.00000000000000	0.00000000000000	0.00000000000000	0.00000000000000	34.80663600000000	0.00000000000000	0.00000000000000	0.00000000000000	0.00000000000000	
2.20499200000000	62.64065400000000	806.62577199999998	59.80350400000000	0.42780900000000	0.00000000000000	0.11465700000000	0.00000000000000	0.00000000000000	0.00000000000000	0.00000000000000	0.00000000000000	0.00000000000000	0.00000000000000	34.80204800000000	0.00000000000000	0.00000000000000	0.00000000000000	0.00000000000000	
2.20666200000000	61.79482600000000	807.58752900000002	59.77335600000000	0.42660300000000	0.00000000000000	0.11466100000000	0.00000000000000	0.00000000000000	0.00000000000000	0.00000000000000	0.00000000000000	0.00000000000000	0.00000000000000	34.79335200000000	0.00000000000000	0.00000000000000	0.00000000000000	0.00000000000000	
2.20833000000000	60.95017000000000	808.37438199999997	59.73784400000000	0.42539500000000	0.00000000000000	0.11466500000000	0.00000000000000	0.00000000000000	0.00000000000000	0.00000000000000	0.00000000000000	0.00000000000000	0.00000000000000	34.78056800000000	0.00000000000000	0.00000000000000	0.00000000000000	0.00000000000000	
2.20998900000000	60.10694600000000	808.98766200000000	59.69694500000000	0.42418400000000	0.00000000000000	0.11467000000000	0.00000000000000	0.00000000000000	0.00000000000000	0.00000000000000	0.00000000000000	0.00000000000000	0.00000000000000	34.76368600000000	0.00000000000000	0.00000000000000	0.00000000000000	0.00000000000000	
2.21165900000000	59.26536500000000	809.42901199999994	59.65059100000000	0.42297000000000	0.00000000000000	0.11467500000000	0.00000000000000	0.00000000000000	0.00000000000000	0.00000000000000	0.00000000000000	0.00000000000000	0.00000000000000	34.74266100000000	0.00000000000000	0.00000000000000	0.00000000000000	0.00000000000000	
2.21332700000000	58.42559000000000	809.70039399999996	59.59867100000000	0.42175300000000	0.00000000000000	0.11468200000000	0.00000000000000	0.00000000000000	0.00000000000000	0.00000000000000	0.00000000000000	0.00000000000000	0.00000000000000	34.71741800000000	0.00000000000000	0.00000000000000	0.00000000000000	0.00000000000000	
2.21498900000000	57.58774100000000	809.80408599999998	59.54103900000000	0.42053000000000	0.00000000000000	0.11468900000000	0.00000000000000	0.00000000000000	0.00000000000000	0.00000000000000	0.00000000000000	0.00000000000000	0.00000000000000	34.68785800000000	0.00000000000000	0.00000000000000	0.00000000000000	0.00000000000000	
2.21666400000000	56.75190300000000	809.74268300000006	59.47751100000000	0.41930300000000	0.00000000000000	0.11469700000000	0.00000000000000	0.00000000000000	0.00000000000000	0.00000000000000	0.00000000000000	0.00000000000000	0.00000000000000	34.65385800000000	0.00000000000000	0.00000000000000	0.00000000000000	0.00000000000000	
